<svg width="444" height="252" viewBox="0 0 444 252" fill="none" xmlns="http://www.w3.org/2000/svg">
<path d="M308.356 71.8216C306.142 75.3877 302.422 80.769 299.474 86.5466C298.685 88.0938 299.5 91.7884 300.872 92.8942C309.056 99.4981 317.702 105.563 328.509 107.037C338.223 108.361 347.229 101.628 350.174 91.1975C352.985 81.2265 349.319 72.497 340.147 68.6231C330.154 64.4008 320.327 65.7082 308.356 71.8216ZM410.025 196.894C396.544 183.853 377.915 178.054 367.553 161.581C373.335 156.507 378.109 158.627 380.297 162.42C383.394 167.792 388.248 170.158 392.933 173.019C401.625 178.322 410.479 183.368 419.307 188.449C427.525 193.18 427.959 196.868 420.6 202.367C410.751 209.731 400.806 216.97 390.861 224.205C388.944 225.599 386.839 226.73 384.534 228.16C383.26 219.884 384.054 218.894 405.387 201.569C402.662 200.85 400.629 200.064 398.532 199.797C358.797 194.722 326.669 176.726 303.404 143.762C293.458 129.666 286.724 114.345 288.125 96.6344C288.514 91.7172 286.366 88.6986 283.404 85.5945C274.461 76.2243 268.524 65.1887 265.573 52.6012C264.821 49.3936 264.694 46.0394 265.324 42.4709C271.724 57.0124 276.475 72.203 289.888 82.8035C291.096 80.7728 292.162 79.0307 293.18 77.2591C302.357 61.2636 319.089 54.0205 337.138 58.2395C352.972 61.9416 361.746 75.3771 358.238 90.5519C354.3 107.571 339.529 117.204 323.497 112.596C317.84 110.973 312.577 107.886 307.258 105.22C304.215 103.692 301.419 101.67 297.694 99.3625C296.188 108.505 298.411 116.157 301.791 123.427C315.108 152.064 336.583 172.562 365.433 185.028C374.729 189.044 384.76 191.44 394.572 194.157C399.589 195.546 404.865 196.011 410.025 196.894Z" fill="#DA5A09"/>
</svg>
