<svg width="444" height="252" viewBox="0 0 444 252" fill="none" xmlns="http://www.w3.org/2000/svg">
<path d="M308.356 179.396C306.142 175.83 302.422 170.449 299.474 164.671C298.685 163.124 299.5 159.43 300.872 158.324C309.056 151.72 317.702 145.655 328.509 144.181C338.223 142.857 347.229 149.59 350.174 160.02C352.985 169.991 349.319 178.721 340.147 182.595C330.154 186.817 320.327 185.51 308.356 179.396ZM410.025 54.3238C396.544 67.3649 377.915 73.1634 367.553 89.6369C373.335 94.7104 378.109 92.5907 380.297 88.7975C383.394 83.426 388.248 81.06 392.933 78.1992C401.625 72.8956 410.479 67.8498 419.307 62.7691C427.525 58.0379 427.959 54.3502 420.6 48.8506C410.751 41.4865 400.806 34.2483 390.861 27.0131C388.944 25.6184 386.839 24.4877 384.534 23.0583C383.26 31.3338 384.054 32.3235 405.387 49.6484C402.662 50.3683 400.629 51.1536 398.532 51.4207C358.797 56.4964 326.669 74.4922 303.404 107.456C293.458 121.552 286.724 136.873 288.125 154.583C288.514 159.501 286.366 162.519 283.404 165.623C274.461 174.994 268.524 186.029 265.573 198.617C264.821 201.824 264.694 205.179 265.324 208.747C271.724 194.205 276.475 179.015 289.888 168.414C291.096 170.445 292.162 172.187 293.18 173.959C302.357 189.954 319.089 197.197 337.138 192.978C352.972 189.276 361.746 175.841 358.238 160.666C354.3 143.647 339.529 134.014 323.497 138.621C317.84 140.245 312.577 143.332 307.258 145.998C304.215 147.526 301.419 149.548 297.694 151.855C296.188 142.713 298.411 135.061 301.791 127.79C315.108 99.1536 336.583 78.6563 365.433 66.1903C374.729 62.1738 384.76 59.778 394.572 57.0612C399.589 55.6721 404.865 55.2069 410.025 54.3238Z" fill="#DA5A09"/>
</svg>
